<mxfile host="app.diagrams.net" modified="2023-04-23T17:01:04.936Z" agent="Mozilla/5.0 (X11; Linux x86_64) AppleWebKit/537.36 (KHTML, like Gecko) Chrome/113.0.0.0 Safari/537.36" version="21.2.1" etag="intfX34x5LzigvZYUZfX" type="github">
  <diagram name="Page-1" id="-pof_1LOkeqto0xNdclX">
    <mxGraphModel>
      <root>
        <mxCell id="0" />
        <mxCell id="1" parent="0" />
      </root>
    </mxGraphModel>
  </diagram>
</mxfile>
